# xmcd
#
# Track frame offsets: 
#        150
#        15182
#        29970
#        45055
#        63372
#        79490
#        98795
#        115835
#        134215
#        149252
#        163852
#        180995
#        201362
#        216211
#        236538
#        250415
#        265461
#        280700
#        296066
#        313034
#
# Disc length: 4429 seconds
#
# Revision: 1
# Processed by: cddbd v1.5.2PL0 Copyright (c) Steve Scherf et al.
# Submitted via: ExactAudioCopy v1.0b3
#
DISCID=2f114b14
DTITLE=容祖儿 - 同名专辑
DYEAR=2001
DGENRE=Pop
TTITLE0=What's up
TTITLE1=命苦
TTITLE2=怯
TTITLE3=再见 我的初恋
TTITLE4=拥抱天下
TTITLE5=隆重登场
TTITLE6=A U READY 4 ME?
TTITLE7=银蛋伴小猫
TTITLE8=走着睡
TTITLE9=麻烦你
TTITLE10=沙堡垒
TTITLE11=随梦前行
TTITLE12=大地
TTITLE13=告解
TTITLE14=瘦身大法
TTITLE15=全身暑假
TTITLE16=一个人砌图
TTITLE17=寂寞大道
TTITLE18=阿门
TTITLE19=爱してぃる
EXTD=
EXTT0=
EXTT1=
EXTT2=
EXTT3=
EXTT4=
EXTT5=
EXTT6=
EXTT7=
EXTT8=
EXTT9=
EXTT10=
EXTT11=
EXTT12=
EXTT13=
EXTT14=
EXTT15=
EXTT16=
EXTT17=
EXTT18=
EXTT19=
PLAYORDER=
